PathFileType	4	(X/Y/Z)	c:\Git\powerlifing_model_clean\simulations\HC835B\Session1\HC835B_CUT_0003\marker_experimental.trc
DataRate	CameraRate	NumFrames	NumMarkers	Units	OrigDataRate	OrigDataStartFrame	OrigNumFrames
240.000000	240.000000	5	38	mm	240.000000	50	81
Frame#	Time	RPSI			LPSI			RASI			LASI			RTH1			RTH2			RTH3			RTH4			RSK1			RSK2			RSK3			RSK4			RCAL1			RCAL2			RCAL3			RST			RPT			RTN			RFMB			RSMB			RVMB			RFMH			RSMH			RVMH			RPM			LTH1			LTH2			LTH3			LTH4			LSK1			LSK2			LSK3			LSK4			LCAL1			LCAL2			LCAL3			LFMH			LVMH			
		X1	Y1	Z1	X2	Y2	Z2	X3	Y3	Z3	X4	Y4	Z4	X5	Y5	Z5	X6	Y6	Z6	X7	Y7	Z7	X8	Y8	Z8	X9	Y9	Z9	X10	Y10	Z10	X11	Y11	Z11	X12	Y12	Z12	X13	Y13	Z13	X14	Y14	Z14	X15	Y15	Z15	X16	Y16	Z16	X17	Y17	Z17	X18	Y18	Z18	X19	Y19	Z19	X20	Y20	Z20	X21	Y21	Z21	X22	Y22	Z22	X23	Y23	Z23	X24	Y24	Z24	X25	Y25	Z25	X26	Y26	Z26	X27	Y27	Z27	X28	Y28	Z28	X29	Y29	Z29	X30	Y30	Z30	X31	Y31	Z31	X32	Y32	Z32	X33	Y33	Z33	X34	Y34	Z34	X35	Y35	Z35	X36	Y36	Z36	X37	Y37	Z37	X38	Y38	Z38	

51	0.2083333333333333	123.2942962646485	1015.040344238281	-557.7388916015626	35.02340316772462	990.7744750976565	-500.925994873047	66.80006408691408	951.0404052734377	-771.4041137695315	-125.0511322021485	891.4597778320315	-613.8787841796876	271.9938964843751	738.2877807617189	-726.7662353515626	243.3989715576172	710.9784545898439	-772.6230468750002	287.0938110351563	655.7434692382814	-738.1876831054689	252.2183685302735	626.0720825195314	-774.6813964843752	511.5785522460939	313.2518920898438	-567.0266723632814	500.4595642089845	268.9952392578126	-608.7474365234376	534.6237792968751	259.9148864746094	-558.9517822265626	514.4987182617189	214.1073455810547	-592.2197265625001	609.0330810546876	144.1730651855469	-436.3206176757814	585.6467285156251	103.9408874511719	-418.1074829101564	644.0951538085939	110.8679656982422	-446.0838623046876	540.0152587890626	91.60802459716798	-471.897918701172	640.1052856445314	106.5702056884766	-510.4719848632814	524.5515136718751	91.51547241210939	-532.2841796875001	520.8623657226564	75.74069213867189	-563.0781250000001	557.1062011718751	98.95000457763675	-592.9932861328126	638.2872924804689	69.11134338378908	-547.7910156250001	507.7406311035157	48.53700256347658	-604.4803466796876	549.5082397460939	54.74569320678712	-643.5143432617189	628.5997314453126	35.05577087402344	-621.3917236328126	515.8503417968751	36.69291687011719	-688.1976318359376	-179.7757873535157	687.8945312500001	-690.1151123046876	0	0	0	-181.1365661621094	618.9738769531251	-736.7299194335939	-208.4701232910157	655.1549682617189	-777.992370605469	35.67446899414063	361.4460449218751	-736.9160766601564	33.33414840698243	318.3405456542969	-765.9225463867189	71.76149749755861	316.9960632324219	-735.3229980468751	77.61174774169923	280.3024597167969	-779.1870117187502	230.9521026611329	270.9665222167969	-676.3999023437501	231.5713348388672	222.3639678955079	-658.8529663085939	273.7850341796876	252.9122009277344	-688.0203857421876	207.097640991211	167.43408203125	-881.4665527343752	161.1551971435547	113.9634246826172	-797.1702270507815	
52	0.2125	116.8067932128907	1016.940734863281	-577.2553100585939	27.54692840576173	993.1126708984377	-519.1213378906251	57.8636817932129	950.9321899414065	-789.1984863281252	-133.2515258789063	893.8101196289065	-631.5880126953126	265.1130981445313	740.3021850585939	-739.7821655273439	236.0957336425782	711.2786865234376	-784.3739013671877	280.8695678710938	657.6147460937501	-748.9725341796876	245.6826324462891	626.4218139648439	-783.9187011718752	509.4034423828126	318.2218322753907	-571.3493041992189	498.1466369628907	273.6404113769532	-612.7980346679689	532.4500732421876	264.9673767089844	-563.0250854492189	512.5253906250001	218.9169616699219	-596.0381469726564	606.6925659179689	150.8529815673828	-439.9555664062501	583.4598999023439	111.1721343994141	-420.8364257812501	641.9536132812501	117.5065078735352	-448.7289123535157	538.3836669921876	97.58195495605472	-474.6353149414064	638.3476562500001	111.3892974853516	-512.8784790039064	523.3658447265626	95.81112670898439	-535.1173095703126	520.0457153320314	78.09799194335939	-565.2012939453126	556.3465576171876	100.4385986328125	-595.8315429687501	637.0408935546876	72.53398895263673	-549.0795288085939	507.1470947265626	48.80239868164064	-605.1621704101564	549.1072998046876	54.25700759887697	-644.3748779296876	628.7573242187501	35.31376266479493	-621.6589355468751	515.6480102539064	36.80391311645509	-688.1033935546876	-186.9603881835938	691.6749877929689	-707.6776123046876	0	0	0	-189.6823272705078	623.3549804687501	-755.0813598632814	-217.713363647461	659.8797607421876	-795.6658325195315	25.30401992797852	355.7352294921876	-768.0972900390627	21.06122016906739	314.1835937500001	-798.769958496094	60.411190032959	310.5480041503907	-769.2930297851565	64.55843353271486	275.4797363281251	-814.2662353515627	219.8057861328126	257.8832702636719	-716.8790283203126	219.5498199462891	208.2612762451172	-701.3659667968751	261.7286071777344	239.2471618652344	-730.6094360351564	187.3321990966797	163.7190093994141	-925.2978515625002	142.4273223876953	107.2096862792969	-842.171081542969	
53	0.2166666666666667	109.8524856567383	1019.029602050781	-596.8134155273439	19.80217170715332	995.4755859375002	-537.2056274414064	48.74052810668947	951.011413574219	-806.802673339844	-141.7063751220703	896.4255371093752	-649.2083740234376	257.8717651367188	742.5629272460939	-753.1180419921876	228.5307617187501	711.9096679687501	-796.3111572265627	274.3236389160157	659.7734985351564	-760.0410766601564	238.8897399902344	627.2128906250001	-793.356384277344	506.8817443847657	323.6253051757813	-576.1133422851564	495.6365051269532	278.8666076660157	-617.3687133789064	529.9661254882814	270.3633422851563	-567.5443115234376	510.1259155273439	224.1385803222657	-600.4527587890626	604.4331665039064	158.470458984375	-444.0502929687501	580.5962524414064	118.7504501342774	-424.1045227050782	639.2969970703126	124.6922836303711	-451.7968139648439	536.3583984375001	104.0653228759766	-477.867645263672	636.2555541992189	116.4732437133789	-515.5902709960939	521.9907226562501	100.3750228881836	-538.3914794921876	519.1428222656251	80.62777709960939	-567.6240234375001	555.5841674804689	102.0041198730469	-598.7813720703126	635.4321899414064	76.17408752441408	-550.6017456054689	506.5327453613282	48.98583221435548	-605.8462524414064	548.6734008789064	53.67565536499025	-645.3481445312501	628.9381713867189	35.60118103027344	-621.9607543945314	515.4824829101564	36.90241241455079	-687.9385375976564	-195.8247070312501	692.6953735351564	-719.5106811523439	0	0	0	-197.9994201660157	627.1421508789064	-773.499694824219	-226.7416687011719	664.1586914062501	-813.2916259765627	15.02460765838623	349.8815917968751	-799.2974853515627	8.621712684631349	310.1851501464844	-831.5411376953127	48.29295730590822	304.6152343750001	-803.3267211914065	50.62123489379884	271.0608215332032	-849.5022583007815	208.0657653808594	245.3600311279297	-757.9609985351564	208.8875885009766	194.1848754882813	-747.3145751953126	249.1233978271485	226.2011260986329	-773.4815673828127	166.6233978271485	160.3591918945313	-968.8937988281252	123.1590042114258	101.6403198242188	-886.5253906250002	
54	0.2208333333333333	102.2781143188477	1021.459106445313	-616.3427734375001	11.81134414672852	997.802185058594	-555.2380371093751	39.22367095947266	950.9754028320315	-824.4965820312502	-150.2238159179688	899.3620605468752	-666.8046875000001	250.4868774414063	745.0826416015626	-766.6921386718751	220.6410827636719	712.7620849609376	-808.6760864257815	267.5615539550782	662.2421875000001	-771.4309082031252	231.7700653076172	628.3611450195314	-803.0667724609377	503.9747619628907	329.4687194824219	-581.3834838867189	492.865936279297	284.5486145019532	-622.4825439453126	527.1752929687501	276.3190307617188	-572.6460571289064	507.6208496093751	229.9740295410157	-605.5137329101564	600.9073486328126	166.0126953125	-448.8250122070314	577.4575805664064	127.1083755493164	-427.866912841797	636.0410766601564	132.2890167236328	-455.3125915527345	533.9647827148439	110.7393493652344	-481.9352416992189	633.8242187500001	121.8937072753907	-518.8287353515626	520.2368774414064	105.1079483032227	-542.4396362304689	517.9891967773439	83.10742950439455	-570.3366699218751	554.6027832031251	103.5241928100586	-602.2186279296876	633.6417846679689	80.04409027099611	-552.2255249023439	505.8246154785157	49.10835266113283	-606.5079345703126	548.2188720703126	53.15037536621095	-646.3193969726564	629.0731811523439	36.0787696838379	-622.1821899414064	515.3694458007814	37.07682800292969	-687.8062744140626	0	0	0	0	0	0	-206.1105346679688	630.8827514648439	-791.6391601562502	-235.6320495605469	667.8569946289064	-830.6741333007815	4.562968730926515	344.5649108886719	-830.3688964843752	-3.958799123764039	306.5112915039063	-864.0295410156252	36.47851943969727	298.6071777343751	-837.2844848632815	35.84517669677735	266.4207458496094	-884.444519042969	196.4037628173829	233.4452362060547	-800.0659790039065	193.2080535888672	183.3069305419922	-789.0083007812502	236.0300292968751	213.9379119873047	-817.5112915039065	145.11474609375	157.3938903808594	-1012.089172363281	103.1946029663086	96.50198364257815	-930.7308349609377	
55	0.225	93.93041229248048	1024.381469726563	-635.7731323242189	3.610293149948121	1000.097351074219	-573.2386474609376	29.62873268127442	951.2420043945315	-842.1277465820315	-158.1079406738282	901.656677246094	-684.1338500976564	242.7531127929688	747.8317260742189	-780.610778808594	212.4718170166016	714.0781860351564	-821.1235961914065	260.5405578613282	665.0966796875001	-783.1976318359377	224.4114990234376	629.9397583007814	-813.0679931640627	500.7439575195314	335.7401123046876	-587.1257324218751	489.8390197753907	290.7754821777344	-628.2335205078126	524.0800781250001	282.6596679687501	-578.2816162109376	504.9187622070314	236.2517089843751	-611.2575683593751	596.8953857421876	173.8231964111328	-454.2406616210939	573.2021484375001	135.3483276367188	-432.3699645996095	632.2405395507814	140.218505859375	-459.3272399902345	531.1624755859376	117.4717178344727	-486.9190979003907	630.8613891601564	127.4287719726563	-522.2435913085939	518.3377075195314	110.0203247070313	-547.1093139648439	516.7053833007814	85.48194122314455	-573.4509887695314	553.3708496093751	105.0011215209961	-606.3322143554689	631.5744018554689	84.12739562988283	-554.0595092773439	504.9426574707032	49.52601623535158	-607.2621459960939	547.6339111328126	52.59229660034181	-647.3876953125001	628.9000854492189	36.87078094482423	-622.2824096679689	515.2228393554689	37.26868057250977	-687.6072998046876	0	0	0	0	0	0	-213.9576263427735	633.9010620117189	-809.7392578125002	-244.3925018310547	671.1392822265626	-848.1098632812502	-5.923977851867677	339.2850952148438	-861.580505371094	-16.60094642639161	302.7902832031251	-896.5015258789065	24.83072090148926	292.5605773925782	-871.1863403320315	21.40615844726563	263.3437500000001	-920.2752075195315	183.8983459472657	222.0028839111329	-842.3991699218752	179.1744842529297	171.6333923339844	-833.174987792969	222.3738403320313	202.2904663085938	-861.7940063476565	123.1634368896485	155.001693725586	-1054.68798828125	82.5926971435547	92.34820556640626	-974.2192993164065	
